  <svg xmlns="http://www.w3.org/2000/svg" xmlns:xlink="http://www.w3.org/1999/xlink" id="flag-icons-pt" viewBox="0 0 640 480">
<defs>

  <symbol id="pt" viewBox="0 0 640 480">
   <g stroke-width="1pt">
    <path fill="#229e45" fill-rule="evenodd" d="M0 0h640v480H0z"/>
    <path fill="#f8e509" fill-rule="evenodd" d="m321.4 436 301.5-195.7L319.6 44 17.1 240.7z"/>
    <path fill="#2b49a3" fill-rule="evenodd" d="M452.8 240c0 70.3-57.1 127.3-127.6 127.3A127.4 127.4 0 1 1 452.8 240"/>
    <path fill="#ffffef" fill-rule="evenodd" d="m283.3 316.3-4-2.3-4 2 .9-4.5-3.2-3.4 4.5-.5 2.2-4 1.9 4.2 4.4.8-3.3 3m86 26.3-3.9-2.3-4 2 .8-4.5-3.1-3.3 4.5-.5 2.1-4.1 2 4.2 4.4.8-3.4 3.1m-36.2-30-3.4-2-3.5 1.8.8-3.9-2.8-2.9 4-.4 1.8-3.6 1.6 3.7 3.9.7-3 2.7m87-8.5-3.4-2-3.5 1.8.8-3.9-2.7-2.8 3.9-.4 1.8-3.5 1.6 3.6 3.8.7-2.9 2.6m-87.3-22-4-2.2-4 2 .8-4.6-3.1-3.3 4.5-.5 2.1-4.1 2 4.2 4.4.8-3.4 3.2m-104.6-35-4-2.2-4 2 1-4.6-3.3-3.3 4.6-.5 2-4.1 2 4.2 4.4.8-3.3 3.1m13.3 57.2-4-2.3-4 2 .9-4.5-3.2-3.3 4.5-.6 2.1-4 2 4.2 4.4.8-3.3 3.1m132-67.3-3.6-2-3.6 1.8.8-4-2.8-3 4-.5 1.9-3.6 1.7 3.8 4 .7-3 2.7m-6.7 38.3-2.7-1.6-2.9 1.4.6-3.2-2.2-2.3 3.2-.4 1.5-2.8 1.3 3 3 .5-2.2 2.2m-142.2 50.4-2.7-1.5-2.7 1.3.6-3-2.1-2.2 3-.4 1.4-2.7 1.3 2.8 3 .6-2.3 2M419 299.8l-2.2-1.1-2.2 1 .5-2.3-1.7-1.6 2.4-.3 1.2-2 1 2 2.5.5-1.9 1.5"/>
    <path fill="#ffffef" fill-rule="evenodd" d="m219.3 287.6-2.7-1.5-2.7 1.3.6-3-2.1-2.2 3-.4 1.4-2.7 1.3 2.8 3 .6-2.3 2"/>
    <path fill="#ffffef" fill-rule="evenodd" d="m219.3 287.6-2.7-1.5-2.7 1.3.6-3-2.1-2.2 3-.4 1.4-2.7 1.3 2.8 3 .6-2.3 2m42.3 3-2.6-1.4-2.7 1.3.6-3-2.1-2.2 3-.4 1.4-2.7 1.3 2.8 3 .5-2.3 2.1m-4.8 17-2.6-1.5-2.7 1.4.6-3-2.1-2.3 3-.4 1.4-2.7 1.3 2.8 3 .6-2.3 2m87.4-22.2-2.6-1.6-2.8 1.4.6-3-2-2.3 3-.3 1.4-2.7 1.2 2.8 3 .5-2.2 2.1m-25.1 3-2.7-1.5-2.7 1.4.6-3-2-2.3 3-.3 1.4-2.8 1.2 2.9 3 .5-2.2 2.1m-68.8-5.8-1.7-1-1.7.8.4-1.9-1.3-1.4 1.9-.2.8-1.7.8 1.8 1.9.3-1.4 1.3m167.8 45.4-2.6-1.5-2.7 1.4.6-3-2.1-2.3 3-.4 1.4-2.7 1.3 2.8 3 .6-2.3 2m-20.8 6-2.2-1.4-2.3 1.2.5-2.6-1.7-1.8 2.5-.3 1.2-2.3 1 2.4 2.5.4-1.9 1.8m10.4 2.3-2-1.2-2.1 1 .4-2.3-1.6-1.7 2.3-.3 1.1-2 1 2 2.3.5-1.7 1.6m29.1-22.8-2-1-2 1 .5-2.3-1.6-1.7 2.3-.3 1-2 1 2.1 2.1.4-1.6 1.6m-38.8 41.8-2.5-1.4-2.7 1.2.6-2.8-2-2 3-.3 1.3-2.5 1.2 2.6 3 .5-2.3 1.9m.6 14.2-2.4-1.4-2.4 1.3.6-2.8-1.9-2 2.7-.4 1.2-2.5 1.1 2.6 2.7.5-2 2m-19-23.1-1.9-1.2-2 1 .4-2.2-1.5-1.7 2.2-.2 1-2 1 2 2.2.4-1.6 1.6m-17.8 2.3-2-1.2-2 1 .5-2.2-1.6-1.7 2.3-.2 1-2 1 2 2.1.4-1.6 1.6m-30.4-24.6-2-1.1-2 1 .5-2.3-1.6-1.6 2.2-.3 1-2 1 2 2.2.5-1.6 1.5m3.7 57-1.6-.9-1.8.9.4-2-1.3-1.4 1.9-.2.9-1.7.8 1.8 1.9.3-1.4 1.3m-46.2-86.6-4-2.3-4 2 .9-4.5-3.2-3.3 4.5-.6 2.2-4 1.9 4.2 4.4.8-3.3 3.1"/>
    <path fill="#fff" fill-rule="evenodd" d="M444.4 285.8a125 125 0 0 0 5.8-19.8c-67.8-59.5-143.3-90-238.7-83.7a125 125 0 0 0-8.5 20.9c113-10.8 196 39.2 241.4 82.6"/>
    <path fill="#309e3a" d="m414 252.4 2.3 1.3a3 3 0 0 0-.3 2.2 3 3 0 0 0 1.4 1.7q1 .8 2 .7.9 0 1.3-.7l.2-.9-.5-1-1.5-1.8a8 8 0 0 1-1.8-3 4 4 0 0 1 2-4.4 4 4 0 0 1 2.3-.2 7 7 0 0 1 2.6 1.2q2.1 1.5 2.6 3.2a4 4 0 0 1-.6 3.3l-2.4-1.5q.5-1 .2-1.7-.2-.8-1.2-1.4a3 3 0 0 0-1.8-.7 1 1 0 0 0-.9.5q-.3.4-.1 1 .2.8 1.6 2.2t2 2.5a4 4 0 0 1-.3 4.2 4 4 0 0 1-1.9 1.5 4 4 0 0 1-2.4.3q-1.3-.3-2.8-1.3-2.2-1.5-2.7-3.3a5 5 0 0 1 .6-4zm-11.6-7.6 2.5 1.3a3 3 0 0 0-.2 2.2 3 3 0 0 0 1.4 1.6q1.1.8 2 .6.9 0 1.3-.8l.2-.8q0-.5-.5-1l-1.6-1.8q-1.7-1.6-2-2.8a4 4 0 0 1 .4-3.1 4 4 0 0 1 1.6-1.4 4 4 0 0 1 2.2-.3 7 7 0 0 1 2.6 1q2.3 1.5 2.7 3.1a4 4 0 0 1-.4 3.4l-2.5-1.4q.5-1 .2-1.7-.4-1-1.3-1.4a3 3 0 0 0-1.9-.6 1 1 0 0 0-.8.5q-.3.4-.1 1 .3.8 1.7 2.2 1.5 1.5 2 2.4a4 4 0 0 1 0 4.2 4 4 0 0 1-1.8 1.6 4 4 0 0 1-2.4.3 8 8 0 0 1-2.9-1.1 6 6 0 0 1-2.8-3.2 5 5 0 0 1 .4-4m-14.2-3.8 7.3-12 8.8 5.5-1.2 2-6.4-4-1.6 2.7 6 3.7-1.3 2-6-3.7-2 3.3 6.7 4-1.2 2zm-20.7-17 1.1-2 5.4 2.7-2.5 5q-1.2.3-3 .2a9 9 0 0 1-3.3-1 8 8 0 0 1-3-2.6 6 6 0 0 1-1-3.5 9 9 0 0 1 1-3.7 8 8 0 0 1 2.6-3 6 6 0 0 1 3.6-1.1q1.4 0 3.2 1 2.4 1.1 3.1 2.8a5 5 0 0 1 .3 3.5l-2.7-.8a3 3 0 0 0-.2-2q-.4-.9-1.6-1.4a4 4 0 0 0-3.1-.3q-1.5.5-2.6 2.6t-.7 3.8a4 4 0 0 0 2 2.4q.8.5 1.7.5h1.8l.8-1.6zm-90.2-22.3 2-14 4.2.7 1.1 9.8 3.9-9 4.2.6-2 13.8-2.7-.4 1.7-10.9-4.4 10.5-2.7-.4-1.1-11.3-1.6 11zm-14.1-1.7 1.3-14 10.3 1-.2 2.4-7.5-.7-.3 3 7 .7-.3 2.4-7-.7-.3 3.8 7.8.7-.2 2.4z"/>
    <g stroke-opacity=".5">
      <path fill="#309e3a" d="M216.5 191.3q0-2.2.7-3.6a7 7 0 0 1 1.4-1.9 5 5 0 0 1 1.8-1.2q1.5-.5 3-.5 3.1.1 5 2a7 7 0 0 1 1.6 5.5q0 3.3-2 5.3a7 7 0 0 1-5 1.7 7 7 0 0 1-4.8-2 7 7 0 0 1-1.7-5.3"/>
      <path fill="#f7ffff" d="M219.4 191.3q0 2.3 1 3.6t2.8 1.3a4 4 0 0 0 2.8-1.1q1-1.2 1.1-3.7.1-2.4-1-3.6a4 4 0 0 0-2.7-1.3 4 4 0 0 0-2.8 1.2q-1.1 1.2-1.2 3.6"/>
    </g>
    <g stroke-opacity=".5">
      <path fill="#309e3a" d="m233 198.5.2-14h6q2.2 0 3.2.5 1 .3 1.6 1.3c.6 1 .6 1.4.6 2.3a4 4 0 0 1-1 2.6 5 5 0 0 1-2.7 1.2l1.5 1.2q.6.6 1.5 2.3l1.7 2.8h-3.4l-2-3.2-1.4-2-.9-.6-1.4-.2h-.6v5.8z"/>
      <path fill="#fff" d="M236 190.5h2q2.1 0 2.6-.2.5-.1.8-.5.4-.6.3-1 0-.9-.4-1.2-.3-.4-1-.6h-2l-2.3-.1z"/>
    </g>
    <g stroke-opacity=".5">
      <path fill="#309e3a" d="m249 185.2 5.2.3q1.7 0 2.6.3a5 5 0 0 1 2 1.4 6 6 0 0 1 1.2 2.4q.4 1.4.3 3.3a9 9 0 0 1-.5 3q-.6 1.5-1.7 2.4a5 5 0 0 1-2 1q-1 .3-2.5.2l-5.3-.3z"/>
      <path fill="#fff" d="m251.7 187.7-.5 9.3h3.8q.8 0 1.2-.5.5-.4.8-1.3t.4-2.6l-.1-2.5a3 3 0 0 0-.8-1.4l-1.2-.7-2.3-.3z"/>
    </g>
    <g stroke-opacity=".5">
      <path fill="#309e3a" d="m317.6 210.2 3.3-13.6 4.4 1 3.2 1q1.1.6 1.6 1.9t.2 2.8q-.3 1.2-1 2a4 4 0 0 1-3 1.4q-1 0-3-.5l-1.7-.5-1.2 5.2z"/>
      <path fill="#fff" d="m323 199.6-.8 3.8 1.5.4q1.6.4 2.2.3a2 2 0 0 0 1.6-1.5q0-.7-.2-1.3a2 2 0 0 0-1-.9l-1.9-.5-1.3-.3z"/>
    </g>
    <g stroke-opacity=".5">
      <path fill="#309e3a" d="m330.6 214.1 4.7-13.2 5.5 2q2.2.8 3 1.4.8.7 1 1.8c.2 1.1.2 1.5 0 2.3q-.6 1.5-1.8 2.2-1.2.6-3 .3.6.7 1 1.6l.8 2.7.6 3.1-3.1-1.1-1-3.6-.7-2.4-.6-.8q-.3-.4-1.3-.7l-.5-.2-2 5.6z"/>
      <path fill="#fff" d="m336 207.4 1.9.7q2 .7 2.5.7t.9-.3q.5-.3.6-.9.3-.6 0-1.2l-.8-.9-2-.7-2-.7-1.2 3.3z"/>
    </g>
    <g stroke-opacity=".5">
      <path fill="#309e3a" d="M347 213.6a9 9 0 0 1 1.7-3.2l1.8-1.5 2-.7q1.5-.1 3.1.4a7 7 0 0 1 4.2 3.3q1.2 2.4.2 5.7a7 7 0 0 1-3.4 4.5q-2.3 1.3-5.2.4a7 7 0 0 1-4.2-3.3 7 7 0 0 1-.2-5.6"/>
      <path fill="#fff" d="M349.8 214.4q-.7 2.3 0 3.8c.7 1.5 1.2 1.6 2.3 2q1.5.5 3-.4 1.4-.8 2.1-3.2.8-2.2 0-3.7a4 4 0 0 0-2.2-2 4 4 0 0 0-3 .3q-1.5.8-2.2 3.2"/>
    </g>
    <g stroke-opacity=".5">
      <path fill="#309e3a" d="m374.3 233.1 6.4-12.4 5.3 2.7a10 10 0 0 1 2.7 1.9q.8.7.8 1.9c0 1.2 0 1.5-.4 2.2a4 4 0 0 1-2 2q-1.5.4-3.1-.2.6 1 .8 1.7.3.9.4 2.8l.2 3.2-3-1.5-.4-3.7-.3-2.5-.5-1-1.2-.7-.5-.3-2.7 5.2z"/>
      <path fill="#fff" d="m380.5 227.2 1.9 1q1.8 1 2.3 1t1-.2q.4-.2.7-.8t.2-1.2l-.7-1-1.8-1-2-1z"/>
    </g>
    <g stroke-opacity=".5">
      <path fill="#309e3a" d="M426.1 258.7a9 9 0 0 1 2.5-2.6 7 7 0 0 1 2.2-.9 6 6 0 0 1 2.2 0q1.5.3 2.8 1.2a7 7 0 0 1 3 4.4q.4 2.6-1.4 5.5a7 7 0 0 1-4.5 3.3 7 7 0 0 1-5.2-1.1 7 7 0 0 1-3-4.4q-.4-2.7 1.4-5.4"/>
      <path fill="#fff" d="M428.6 260.3q-1.4 2-1.1 3.6a4 4 0 0 0 1.6 2.5q1.5 1 3 .6t2.9-2.4q1.4-2.1 1.1-3.6t-1.6-2.6c-1.4-1.1-2-.8-3-.5q-1.5.3-3 2.4z"/>
    </g>
    <path fill="#309e3a" d="m301.8 204.5 2.3-9.8 7.2 1.7-.3 1.6-5.3-1.2-.5 2.2 4.9 1.1-.4 1.7-4.9-1.2-.6 2.7 5.5 1.3-.4 1.6z"/>
  </g>
  </symbol>

  <symbol id="br" viewBox="0 0 640 480">
 <path fill="red" d="M256 0h384v480H256z"/>
  <path fill="#060" d="M0 0h256v480H0z"/>
  <g fill="#ff0" fill-rule="evenodd" stroke="#000" stroke-linecap="round" stroke-linejoin="round" stroke-width=".6">
    <path d="M339.5 306.2c-32.3-1-180-93.2-181-108l8.1-13.5c14.7 21.3 165.7 111 180.6 107.8z"/>
    <path d="M164.9 182.8c-2.9 7.8 38.6 33.4 88.4 63.8 49.9 30.3 92.9 49 96 46.4l1.5-2.8c-.6 1-2 1.3-4.3.6-13.5-3.9-48.6-20-92.1-46.4-43.6-26.4-81.4-50.7-87.3-61a6.3 6.3 0 0 1-.6-3.1h-.2l-1.2 2.2zm175.3 123.8c-.5 1-1.6 1-3.5.8-12-1.3-48.6-19.1-91.9-45-50.4-30.2-92-57.6-87.4-64.8l1.2-2.2.2.1c-4 12.2 82.1 61.4 87.2 64.6 49.8 30.8 91.8 48.9 95.5 44.2z"/>
    <path d="M256.2 207.2c32.2-.3 72-4.4 95-13.6l-5-8c-13.5 7.5-53.5 12.5-90.3 13.2-43.4-.4-74.1-4.5-89.5-14.8l-4.6 8.6c28.2 12 57.2 14.5 94.4 14.6"/>
    <path d="M352.5 193.8c-.8 1.3-15.8 6.4-37.8 10.2a381.2 381.2 0 0 1-58.6 4.3 416.1 416.1 0 0 1-56.2-3.6c-23.1-3.6-35-8.6-39.5-10.4l1.1-2.2c12.7 5 24.7 8 38.7 10.2A411.5 411.5 0 0 0 256 206a391.8 391.8 0 0 0 58.3-4.3c22.5-3.7 34.8-8.4 36.6-10.5zm-4.4-8.1c-2.4 2-14.6 6.3-36 9.7a388.2 388.2 0 0 1-55.8 4c-22 0-40.1-1.6-53.8-3.6-21.8-2.8-33.4-8-37.6-9.4l1.3-2.2c3.3 1.7 14.4 6.2 36.5 9.3a385 385 0 0 0 53.6 3.4 384 384 0 0 0 55.4-4c21.5-3 33.1-8.4 34.9-9.8zM150.3 246c19.8 10.7 63.9 16 105.6 16.4 38 .1 87.4-5.8 105.9-15.6l-.5-10.7c-5.8 9-58.8 17.7-105.8 17.4-47-.4-90.7-7.6-105.3-17v9.5"/>
    <path d="M362.8 244.5v2.5c-2.8 3.4-20.2 8.4-42 12a434 434 0 0 1-65.4 4.4 400 400 0 0 1-62-4.3 155 155 0 0 1-44.4-12v-2.9c9.7 6.4 35.9 11.2 44.7 12.6 15.8 2.4 36.1 4.2 61.7 4.2 26.9 0 48.4-1.9 65-4.4 15.7-2.3 38-8.2 42.4-12.1m0-9v2.5c-2.8 3.3-20.2 8.3-42 11.9a434 434 0 0 1-65.4 4.5 414 414 0 0 1-62-4.3 155 155 0 0 1-44.4-12v-3c9.7 6.5 36 11.2 44.7 12.6a408 408 0 0 0 61.7 4.3c26.9 0 48.5-2 65-4.5 15.7-2.2 38-8.1 42.4-12m-107 68.8c-45.6-.2-84.7-12.4-93-14.4l6 9.4a249.8 249.8 0 0 0 87.4 14.3c34.7-1 65-3.7 86.3-14.1l6.2-9.8c-14.5 6.9-64 14.6-93 14.6"/>
    <path d="M344.9 297.3a143 143 0 0 1-2.8 4c-10 3.6-26 7.4-32.6 8.4a295.5 295.5 0 0 1-53.7 5c-40.4-.6-73.5-8.5-89-15.3l-1.3-2.1.2-.4 2.1.9a286.5 286.5 0 0 0 88.2 14.5c18.8 0 37.5-2.1 52.6-4.8 23.2-4.7 32.6-8.2 35.5-9.8l.7-.4zm5.3-8.8a287.2 287.2 0 0 1-2 3.5c-5.4 2-20 6.2-41.3 9.2-14 1.9-22.7 3.8-50.6 4.3a347.4 347.4 0 0 1-94.2-14L161 289a390 390 0 0 0 95.4 14c25.5-.5 36.4-2.4 50.3-4.3 24.8-3.8 37.3-8 41-9.1a2.9 2.9 0 0 0 0-.2l2.6-1z"/>
    <path d="M350.8 237.6c.1 30-15.3 57-27.6 68.8a99.3 99.3 0 0 1-67.8 28.2c-30.3.5-58.8-19.2-66.5-27.9a101 101 0 0 1-27.5-67.4c1.8-32.8 14.7-55.6 33.3-71.3a99.6 99.6 0 0 1 64.2-22.7 98.2 98.2 0 0 1 71 35.6c12.5 15.2 18 31.7 20.9 56.7M255.6 135a106 106 0 0 1 106 105.2 105.6 105.6 0 1 1-211.4 0c-.1-58 47.3-105.2 105.4-105.2"/>
    <path d="M255.9 134.5c58.2 0 105.6 47.4 105.6 105.6S314.1 345.7 256 345.7s-105.6-47.4-105.6-105.6c0-58.2 47.4-105.6 105.6-105.6zM152.6 240c0 56.8 46.7 103.3 103.3 103.3 56.6 0 103.3-46.5 103.3-103.3s-46.7-103.3-103.3-103.3S152.6 183.2 152.6 240"/>
    <path d="M256 143.3a97 97 0 0 1 96.7 96.7 97.1 97.1 0 0 1-96.7 96.8c-53 0-96.7-43.6-96.7-96.8a97.1 97.1 0 0 1 96.7-96.7M161.6 240c0 52 42.6 94.4 94.4 94.4s94.4-42.5 94.4-94.4c0-52-42.6-94.4-94.4-94.4a94.8 94.8 0 0 0-94.4 94.4"/>
    <path d="M260.3 134h-9.1v212.3h9z"/>
    <path d="M259.3 132.8h2.3v214.7h-2.2V132.8zm-9 0h2.4v214.7h-2.3z"/>
    <path d="M361.6 244.2v-7.8l-6.4-6-36.3-9.6-52.2-5.3-63 3.2-44.8 10.6-9 6.7v7.9l22.9-10.3 54.4-8.5h52.3l38.4 4.2 26.6 6.4z"/>
    <path d="M256 223.8c24.9 0 49 2.3 68.3 6 19.8 4 33.7 9 38.5 14.5v2.8c-5.8-7-24.5-12-39-15-19-3.6-43-6-67.9-6-26.1 0-50.5 2.6-69.3 6.2-15 3-35.1 9-37.6 14.8v-2.9c1.3-4 16.3-10 37.3-14.3 18.9-3.7 43.3-6.1 69.6-6.1zm0-9.1a383 383 0 0 1 68.3 6c19.8 4 33.7 9 38.5 14.6v2.7c-5.8-6.9-24.5-12-39-14.9-19-3.7-43-6-67.9-6a376 376 0 0 0-69.2 6.2c-14.5 2.7-35.4 8.9-37.7 14.7v-2.8c1.4-4 16.6-10.3 37.3-14.3 19-3.7 43.3-6.2 69.7-6.2m-.6-46.2c39.3-.2 73.6 5.5 89.3 13.5l5.7 10c-13.6-7.4-50.6-15-94.9-14-36.1.3-74.7 4-94 14.4l6.8-11.4c15.9-8.3 53.3-12.5 87.1-12.5"/>
    <path d="M256 176.7a354 354 0 0 1 61.3 4.3c16 3 31.3 7.4 33.5 9.8l1.7 3c-5.3-3.4-18.6-7.3-35.6-10.5s-38.7-4.3-61-4.2c-25.3-.1-45 1.2-61.8 4.2a108.9 108.9 0 0 0-33.3 10.3l1.7-3.1c6-3 15.3-6.7 31.1-9.6 17.5-3.2 37.4-4.1 62.4-4.2m0-9c21.4-.2 42.6 1 59.1 4a96 96 0 0 1 30.6 10l2.5 4c-4.2-4.7-20-9.2-34.1-11.6-16.4-2.9-36.7-4-58.1-4.2a361 361 0 0 0-59.5 4.4 97.3 97.3 0 0 0-29.6 9.1l2.2-3.3c5.8-3 15.2-5.8 27-8.1a357 357 0 0 1 59.9-4.4zM308.4 284a276.4 276.4 0 0 0-52.5-4c-65.5.8-86.6 13.5-89.2 17.3l-5-8c16.8-12 52.4-18.8 94.6-18.2 21.9.4 40.8 1.9 56.6 5l-4.5 8"/>
    <path d="M255.6 278.9c18.2.3 36 1 53.3 4.2l-1.2 2.2c-16-3-33.2-4-52-4-24.3-.2-48.7 2.1-70 8.2-6.7 1.9-17.8 6.2-19 9.8l-1.2-2c.4-2.2 7-6.6 19.6-10 24.4-7 47.2-8.3 70.5-8.4m.8-9.2a327 327 0 0 1 57.3 5l-1.3 2.3a299 299 0 0 0-56-4.9c-24.2 0-49.9 1.8-73.3 8.6-7.5 2.2-20.6 7-21 10.7l-1.2-2.2c.2-3.4 11.5-7.9 21.7-10.8 23.5-6.9 49.3-8.6 73.8-8.7"/>
    <path d="m349.4 290.5-7.8 12.3-22.7-20.1-58.6-39.5-66.2-36.3-34.3-11.7 7.3-13.6 2.5-1.3 21.3 5.3 70.4 36.3 40.6 25.6L336 272l13.9 16z"/>
    <path d="M158.6 195.5c6-4 50.2 15.6 96.6 43.6 46.1 28 90.3 59.6 86.3 65.5l-1.3 2.1-.6.5c.1-.1.8-1 0-3.1-2-6.5-33.4-31.5-85.3-62.9-50.7-30.1-92.9-48.3-97-43.1zM351 290.4c3.8-7.6-37.2-38.5-88.1-68.6-52-29.5-89.6-46.9-96.5-41.7L165 183c0 .1 0-.2.4-.5 1.2-1 3.3-1 4.2-1 11.8.2 45.5 15.7 92.8 42.8 20.8 12 87.6 55 87.3 67 0 1 .1 1.2-.3 1.8l1.7-2.6z"/>
  </g>
  <g transform="translate(0 26.7)scale(1.06667)">
    <path fill="#fff" stroke="#000" stroke-width=".7" d="M180.6 211a58.7 58.7 0 0 0 17.5 41.7 59 59 0 0 0 41.8 17.6 59.4 59.4 0 0 0 42-17.4 59 59 0 0 0 17.4-41.8v-79.2l-118.7-.2z"/>
    <path fill="red" stroke="#000" stroke-width=".5" d="M183 211.1a56.4 56.4 0 0 0 16.8 40 57 57 0 0 0 40.2 16.8 56.9 56.9 0 0 0 40.2-16.6 56.4 56.4 0 0 0 16.7-40v-77H183v76.8m91-53.7v48.9l-.1 5.1a33.2 33.2 0 0 1-10 24 34 34 0 0 1-24 10c-9.4 0-17.7-4-23.9-10.2a34 34 0 0 1-10-24v-54z"/>
    <g id="pt-e">
      <g id="pt-d" fill="#ff0" stroke="#000" stroke-width=".5">
        <path stroke="none" d="M190.2 154.4c.1-5.5 4-6.8 4-6.8.1 0 4.3 1.4 4.3 6.9z"/>
        <path d="m186.8 147.7-.7 6.3h4.2c0-5.2 4-6 4-6 .1 0 4 1.1 4.1 6h4.2l-.8-6.4zm-1 6.4h17c.3 0 .6.3.6.7 0 .5-.3.8-.6.8h-17c-.3 0-.6-.3-.6-.8 0-.4.3-.7.7-.7z"/>
        <path d="M192 154c0-3.3 2.3-4.2 2.3-4.2s2.3 1 2.3 4.2H192m-5.8-9h16.3c.3 0 .6.4.6.8 0 .3-.3.6-.6.6h-16.3c-.3 0-.6-.3-.6-.7 0-.3.3-.6.6-.6zm.4 1.5H202c.3 0 .6.3.6.7 0 .4-.3.7-.6.7h-15.5c-.4 0-.6-.3-.6-.7 0-.4.2-.7.6-.7zm5-10.6h1.2v.8h.9v-.8h1.3v.9h.9v-1h1.2v2c0 .4-.2.6-.5.6h-4.4c-.3 0-.6-.2-.6-.5zm4.6 2.7.3 6.4h-4.3l.3-6.5h3.7"/>
        <path id="pt-a" d="M191 141.6v3.4h-4v-3.4z"/>
        <use href="#pt-a" width="100%" height="100%" x="10.6"/>
        <path id="pt-b" d="M186.3 139h1.2v1h.9v-1h1.2v1h.9v-1h1.2v2c0 .4-.2.6-.5.6h-4.3a.6.6 0 0 1-.6-.6z"/>
        <use href="#pt-b" width="100%" height="100%" x="10.6"/>
        <path fill="#000001" stroke="none" d="M193.9 140.6c0-.6.9-.6.9 0v1.6h-.9z"/>
        <path id="pt-c" fill="#000001" stroke="none" d="M188.6 142.8c0-.6.8-.6.8 0v1.2h-.8z"/>
        <use href="#pt-c" width="100%" height="100%" x="10.6"/>
      </g>
      <use href="#pt-d" width="100%" height="100%" y="46.3"/>
      <use href="#pt-d" width="100%" height="100%" transform="rotate(-45.2 312.8 180)"/>
    </g>
    <use href="#pt-d" width="100%" height="100%" x="45.7"/>
    <use href="#pt-e" width="100%" height="100%" transform="matrix(-1 0 0 1 479.8 0)"/>
    <g id="pt-f" fill="#fff">
      <path fill="#039" d="M232.6 202.4a8.3 8.3 0 0 0 2.2 5.7 7.2 7.2 0 0 0 5.3 2.4c2.1 0 4-1 5.3-2.4a8.3 8.3 0 0 0 2.2-5.7v-10.8h-15z"/>
      <circle cx="236.1" cy="195.7" r="1.5"/>
      <circle cx="244.4" cy="195.7" r="1.5"/>
      <circle cx="240.2" cy="199.7" r="1.5"/>
      <circle cx="236.1" cy="203.9" r="1.5"/>
      <circle cx="244.4" cy="203.9" r="1.5"/>
    </g>
    <use href="#pt-f" width="100%" height="100%" y="-26"/>
    <use href="#pt-f" width="100%" height="100%" x="-20.8"/>
    <use href="#pt-f" width="100%" height="100%" x="20.8"/>
    <use href="#pt-f" width="100%" height="100%" y="25.8"/>
  </g>
  </symbol>

  <clipPath id="clip-br">
    <polygon points="0,0 640,0 0,480"/>
  </clipPath>

  <clipPath id="clip-pt">
    <polygon points="0,480 640,480 640,0"/>
  </clipPath>

</defs>

<use href="#br" clip-path="url(#clip-br)"/>
<use href="#pt" clip-path="url(#clip-pt)"/>

</svg>